<svg width="28" height="28" viewBox="0 0 28 28" fill="none" xmlns="http://www.w3.org/2000/svg">
<path d="M14 15.75C15.5575 15.75 17.0801 15.2881 18.3751 14.4228C19.6702 13.5575 20.6795 12.3276 21.2756 10.8886C21.8716 9.44967 22.0275 7.86627 21.7237 6.33867C21.4198 4.81107 20.6698 3.40788 19.5685 2.30654C18.4671 1.2052 17.0639 0.455178 15.5363 0.151319C14.0087 -0.152539 12.4253 0.00341213 10.9864 0.599452C9.5474 1.19549 8.31749 2.20485 7.45218 3.49989C6.58686 4.79492 6.125 6.31747 6.125 7.875C6.125 9.96358 6.95468 11.9666 8.43153 13.4435C9.90838 14.9203 11.9114 15.75 14 15.75ZM21 17.5H17.9865C16.7365 18.0764 15.3765 18.3749 14 18.3749C12.6235 18.3749 11.2635 18.0764 10.0135 17.5H7C5.14348 17.5 3.36301 18.2375 2.05025 19.5503C0.737498 20.863 0 22.6435 0 24.5L0 25.375C0 26.0712 0.276562 26.7389 0.768845 27.2312C1.26113 27.7234 1.92881 28 2.625 28H25.375C26.0712 28 26.7389 27.7234 27.2312 27.2312C27.7234 26.7389 28 26.0712 28 25.375V24.5C28 22.6435 27.2625 20.863 25.9497 19.5503C24.637 18.2375 22.8565 17.5 21 17.5Z" fill="white"/>
</svg>
