<svg width="44" height="44" viewBox="0 0 44 44" fill="none" xmlns="http://www.w3.org/2000/svg">
<path d="M40.8601 17.2869H26.7162V3.14308C26.7162 2.30948 26.385 1.51003 25.7956 0.920585C25.2062 0.331143 24.4067 0 23.5731 0H20.43C19.5964 0 18.797 0.331143 18.2075 0.920585C17.6181 1.51003 17.2869 2.30948 17.2869 3.14308V17.2869H3.14308C2.30948 17.2869 1.51003 17.6181 0.920587 18.2075C0.331145 18.797 0 19.5964 0 20.43L0 23.5731C0 24.4067 0.331145 25.2062 0.920587 25.7956C1.51003 26.3851 2.30948 26.7162 3.14308 26.7162H17.2869V40.8601C17.2869 41.6937 17.6181 42.4931 18.2075 43.0826C18.797 43.672 19.5964 44.0031 20.43 44.0031H23.5731C24.4067 44.0031 25.2062 43.672 25.7956 43.0826C26.385 42.4931 26.7162 41.6937 26.7162 40.8601V26.7162H40.8601C41.6937 26.7162 42.4931 26.3851 43.0826 25.7956C43.672 25.2062 44.0031 24.4067 44.0031 23.5731V20.43C44.0031 19.5964 43.672 18.797 43.0826 18.2075C42.4931 17.6181 41.6937 17.2869 40.8601 17.2869Z" fill="black"/>
</svg>
