<svg width="34" height="29" viewBox="0 0 34 29" fill="none" xmlns="http://www.w3.org/2000/svg">
<path d="M9.91649 11.9086V17.0872C9.91649 17.4992 9.74856 17.8944 9.44963 18.1858C9.15071 18.4771 8.74528 18.6408 8.32254 18.6408H1.59395C1.17121 18.6408 0.765782 18.4771 0.466858 18.1858C0.167935 17.8944 1.41697e-06 17.4992 1.41697e-06 17.0872V11.9086C0.000564582 11.497 0.168747 11.1023 0.467609 10.8114C0.766472 10.5205 1.17158 10.3571 1.59395 10.3571H8.32254C8.53186 10.3571 8.73913 10.3973 8.93252 10.4754C9.12591 10.5535 9.30162 10.6679 9.44963 10.8122C9.59764 10.9564 9.71505 11.1277 9.79516 11.3162C9.87526 11.5047 9.91649 11.7067 9.91649 11.9107V11.9086ZM1.41697e-06 22.2658V27.4444C-0.000277915 27.6486 0.0407447 27.8508 0.120723 28.0395C0.200701 28.2282 0.318067 28.3998 0.466106 28.5442C0.614146 28.6887 0.789956 28.8033 0.983481 28.8815C1.17701 28.9597 1.38445 29 1.59395 29H8.32254C8.53186 29 8.73913 28.9598 8.93252 28.8817C9.12591 28.8037 9.30162 28.6892 9.44963 28.545C9.59764 28.4007 9.71505 28.2294 9.79516 28.041C9.87526 27.8525 9.91649 27.6504 9.91649 27.4464V22.2679C9.91649 21.8558 9.74856 21.4607 9.44963 21.1693C9.15071 20.878 8.74528 20.7143 8.32254 20.7143H1.59395C1.17158 20.7143 0.766472 20.8777 0.467609 21.1686C0.168747 21.4595 0.000564582 21.8541 1.41697e-06 22.2658ZM8.32254 0H1.59395C1.17121 0 0.765782 0.163678 0.466858 0.455029C0.167935 0.746381 1.41697e-06 1.14154 1.41697e-06 1.55357V6.73214C1.41697e-06 7.14418 0.167935 7.53933 0.466858 7.83068C0.765782 8.12204 1.17121 8.28571 1.59395 8.28571H8.32254C8.53186 8.28571 8.73913 8.24553 8.93252 8.16745C9.12591 8.08938 9.30162 7.97495 9.44963 7.83068C9.59764 7.68642 9.71505 7.51516 9.79516 7.32667C9.87526 7.13818 9.91649 6.93616 9.91649 6.73214V1.55357C9.91649 1.34955 9.87526 1.14753 9.79516 0.959042C9.71505 0.770554 9.59764 0.599292 9.44963 0.455029C9.30162 0.310767 9.12591 0.196334 8.93252 0.118259C8.73913 0.0401852 8.53186 0 8.32254 0ZM13.6357 29H32.4061C32.8288 29 33.2342 28.8363 33.5331 28.545C33.8321 28.2536 34 27.8585 34 27.4464V22.2679C34 21.8558 33.8321 21.4607 33.5331 21.1693C33.2342 20.878 32.8288 20.7143 32.4061 20.7143H13.6357C13.213 20.7143 12.8075 20.878 12.5086 21.1693C12.2097 21.4607 12.0418 21.8558 12.0418 22.2679V27.4464C12.0418 27.8585 12.2097 28.2536 12.5086 28.545C12.8075 28.8363 13.213 29 13.6357 29ZM12.0418 1.55357V6.73214C12.0418 7.14418 12.2097 7.53933 12.5086 7.83068C12.8075 8.12204 13.213 8.28571 13.6357 8.28571H32.4061C32.8288 8.28571 33.2342 8.12204 33.5331 7.83068C33.8321 7.53933 34 7.14418 34 6.73214V1.55357C34 1.14154 33.8321 0.746381 33.5331 0.455029C33.2342 0.163678 32.8288 0 32.4061 0H13.6357C13.213 0 12.8075 0.163678 12.5086 0.455029C12.2097 0.746381 12.0418 1.14154 12.0418 1.55357ZM13.6357 18.6429H32.4061C32.8288 18.6429 33.2342 18.4792 33.5331 18.1878C33.8321 17.8965 34 17.5013 34 17.0893V11.9107C34 11.4987 33.8321 11.1035 33.5331 10.8122C33.2342 10.5208 32.8288 10.3571 32.4061 10.3571H13.6357C13.213 10.3571 12.8075 10.5208 12.5086 10.8122C12.2097 11.1035 12.0418 11.4987 12.0418 11.9107V17.0893C12.0418 17.5013 12.2097 17.8965 12.5086 18.1878C12.8075 18.4792 13.213 18.6429 13.6357 18.6429Z" fill="white"/>
</svg>
