<svg width="37" height="28" viewBox="0 0 37 28" fill="none" xmlns="http://www.w3.org/2000/svg">
<path d="M17.5261 7.26415L6.00149 16.7556V26.9994C6.00149 27.2648 6.10691 27.5193 6.29455 27.7069C6.4822 27.8946 6.7367 28 7.00207 28L14.0061 27.982C14.2714 27.982 14.5259 27.8766 14.7136 27.6889C14.9012 27.5013 15.0066 27.2468 15.0066 26.9814V20.998C15.0066 20.7326 15.1121 20.4781 15.2997 20.2905C15.4873 20.1028 15.7418 19.9974 16.0072 19.9974H20.0095C20.2749 19.9974 20.5294 20.1028 20.717 20.2905C20.9047 20.4781 21.0101 20.7326 21.0101 20.998V26.9754C21.0101 27.2408 21.1155 27.4953 21.3031 27.6829C21.4908 27.8706 21.7453 27.976 22.0106 27.976L29.0146 27.996C29.28 27.996 29.5345 27.8906 29.7222 27.7029C29.9098 27.5153 30.0152 27.2608 30.0152 26.9954V16.7496L18.4826 7.26415C18.3471 7.155 18.1784 7.09549 18.0044 7.09549C17.8304 7.09549 17.6616 7.155 17.5261 7.26415ZM35.7365 13.7158L30.5115 9.40738V0.750429C30.5115 0.551403 30.4324 0.360531 30.2917 0.219799C30.151 0.0790661 29.9601 0 29.7611 0H26.2451C26.046 0 25.8552 0.0790661 25.7144 0.219799C25.5737 0.360531 25.4946 0.551403 25.4946 0.750429V5.28903L19.8914 0.686397C19.3543 0.244899 18.6806 0.00354206 17.9853 0.00354206C17.2901 0.00354206 16.6164 0.244899 16.0793 0.686397L0.272219 13.7078C0.196267 13.7706 0.133429 13.8478 0.0872952 13.9349C0.0411609 14.022 0.0126337 14.1173 0.00334233 14.2154C-0.005949 14.3135 0.00417763 14.4125 0.0331439 14.5067C0.0621102 14.6009 0.109349 14.6885 0.172162 14.7644L1.77308 16.7015C1.83574 16.7776 1.91278 16.8407 1.9998 16.887C2.08682 16.9333 2.18211 16.962 2.28023 16.9715C2.37836 16.981 2.47738 16.971 2.57166 16.9422C2.66594 16.9134 2.75361 16.8663 2.82968 16.8036L17.5261 4.70269C17.6616 4.59354 17.8304 4.53402 18.0044 4.53402C18.1784 4.53402 18.3471 4.59354 18.4826 4.70269L33.187 16.8136C33.263 16.8764 33.3505 16.9237 33.4447 16.9526C33.5389 16.9816 33.6379 16.9917 33.7361 16.9824C33.8342 16.9731 33.9295 16.9446 34.0166 16.8985C34.1037 16.8523 34.1808 16.7895 34.2436 16.7136L35.8445 14.7764C35.9073 14.7001 35.9544 14.6121 35.9831 14.5174C36.0117 14.4228 36.0214 14.3235 36.0115 14.2251C36.0017 14.1267 35.9725 14.0313 35.9256 13.9442C35.8788 13.8572 35.8152 13.7802 35.7385 13.7178L35.7365 13.7158Z" fill="white"/>
</svg>
